<?xml version="1.0" standalone="no"?>
<!DOCTYPE svg PUBLIC "-//W3C//DTD SVG 20010904//EN"
 "http://www.w3.org/TR/2001/REC-SVG-20010904/DTD/svg10.dtd">
<svg version="1.0" xmlns="http://www.w3.org/2000/svg"
 width="232.000000pt" height="232.000000pt" viewBox="0 0 232.000000 232.000000"
 preserveAspectRatio="xMidYMid meet">
<metadata>
Created by potrace 1.16, written by Peter Selinger 2001-2019
</metadata>
<g transform="translate(0.000000,232.000000) scale(0.100000,-0.100000)"
fill="#000000" stroke="none">
<path d="M1046 2279 c-291 -29 -563 -175 -755 -406 -313 -377 -340 -922 -67
-1332 317 -477 933 -640 1441 -383 383 193 617 575 617 1002 0 307 -117 587
-334 802 -238 233 -568 350 -902 317z m369 -168 c324 -87 590 -348 692 -677
25 -83 27 -100 27 -274 0 -173 -2 -191 -27 -273 -51 -165 -135 -305 -252 -422
-117 -117 -257 -201 -422 -252 -82 -25 -100 -27 -273 -27 -174 0 -191 2 -274
27 -268 83 -485 266 -607 512 -78 158 -93 227 -94 435 0 206 14 271 95 435
136 275 408 483 702 534 95 17 342 7 433 -18z"/>
<path d="M1676 1598 c-30 -29 -219 -225 -421 -435 -202 -211 -370 -383 -373
-383 -4 0 -85 92 -180 205 -163 193 -175 205 -207 205 -39 0 -75 -31 -75 -65
0 -12 15 -39 33 -61 190 -227 373 -441 385 -451 44 -36 59 -24 324 250 526
543 653 678 662 702 14 35 -20 79 -63 83 -27 3 -40 -5 -85 -50z"/>
</g>
</svg>
